<svg width="24" height="24" viewBox="0 0 24 24" fill="none" xmlns="http://www.w3.org/2000/svg">
<rect width="24" height="24" rx="12" fill="#B63CDF"/>
<path d="M19.8098 0.585409C19.8697 0.401147 20.1303 0.401148 20.1902 0.58541L20.8532 2.62574C20.8799 2.70814 20.9567 2.76393 21.0434 2.76393H23.1887C23.3824 2.76393 23.463 3.01186 23.3062 3.12574L21.5706 4.38673C21.5005 4.43765 21.4712 4.52793 21.498 4.61033L22.1609 6.65066C22.2208 6.83492 22.0099 6.98814 21.8532 6.87426L20.1176 5.61327C20.0475 5.56235 19.9525 5.56235 19.8824 5.61327L18.1468 6.87426C17.9901 6.98815 17.7792 6.83492 17.8391 6.65066L18.502 4.61033C18.5288 4.52793 18.4995 4.43765 18.4294 4.38673L16.6938 3.12573C16.537 3.01185 16.6176 2.76393 16.8113 2.76393H18.9566C19.0433 2.76393 19.1201 2.70814 19.1468 2.62574L19.8098 0.585409Z" fill="#FFD66B"/>
<path d="M14.7276 6.48H17.1116C17.3142 6.48 17.4582 6.528 17.5436 6.624C17.6396 6.70933 17.6876 6.85333 17.6876 7.056V13.264C17.6876 13.6053 17.6716 13.9253 17.6396 14.224C17.6182 14.512 17.5382 14.8533 17.3996 15.248L16.5996 17.424C16.5462 17.584 16.4662 17.7227 16.3596 17.84C16.2636 17.9467 16.1302 18 15.9596 18H13.8316C13.6609 18 13.5062 17.9627 13.3676 17.888C13.2289 17.8133 13.1382 17.6907 13.0956 17.52L12.3596 14.912C12.3276 14.8053 12.2849 14.736 12.2316 14.704C12.1889 14.6613 12.1356 14.64 12.0716 14.64H11.9276C11.8636 14.64 11.8049 14.6613 11.7516 14.704C11.7089 14.736 11.6716 14.8053 11.6396 14.912L10.8876 17.52C10.8449 17.68 10.7649 17.8027 10.6476 17.888C10.5302 17.9627 10.3862 18 10.2156 18H8.10356C7.9329 18 7.78356 17.9467 7.65556 17.84C7.53823 17.7333 7.4529 17.5947 7.39956 17.424L6.59956 15.216C6.4609 14.8213 6.37556 14.48 6.34356 14.192C6.32223 13.8933 6.31156 13.5733 6.31156 13.232V7.056C6.31156 6.85333 6.35423 6.70933 6.43956 6.624C6.53556 6.528 6.6849 6.48 6.88756 6.48H9.35156C9.55423 6.48 9.69823 6.528 9.78356 6.624C9.87956 6.70933 9.92756 6.85333 9.92756 7.056V12.944L10.8556 10.928C10.9409 10.7467 11.0529 10.6187 11.1916 10.544C11.3302 10.4693 11.5009 10.432 11.7036 10.432H12.3756C12.5782 10.432 12.7489 10.4693 12.8876 10.544C13.0262 10.6187 13.1382 10.7467 13.2236 10.928L14.1516 12.944V7.056C14.1516 6.85333 14.1942 6.70933 14.2796 6.624C14.3756 6.528 14.5249 6.48 14.7276 6.48Z" fill="white"/>
</svg>
