<svg width="277" height="80" viewBox="0 0 277 80" fill="none" xmlns="http://www.w3.org/2000/svg">
    <path
        d="M263.15 0H13.85C6.20086 0 0 7.16344 0 16V64C0 72.8366 6.20086 80 13.85 80H263.15C270.799 80 277 72.8366 277 64V16C277 7.16344 270.799 0 263.15 0Z"
        fill="#F3F5F7" />
    <path
        d="M43 64C56.2548 64 67 53.2548 67 40C67 26.7452 56.2548 16 43 16C29.7452 16 19 26.7452 19 40C19 53.2548 29.7452 64 43 64Z"
        fill="#3A7AFE" />
    <path
        d="M31 32C31 30.8954 31.8954 30 33 30H36C37.1046 30 38 30.8954 38 32V42L41 36C41.5523 35 42.4477 35 43 36L46 42V32C46 30.8954 46.8954 30 48 30H51C52.1046 30 53 30.8954 53 32V48C53 50.2091 51.2091 52 49 52H47C45.8954 52 45 51.1046 45 50V47L43 50.5C42.5523 51.25 41.4477 51.25 41 50.5L39 47V50C39 51.1046 38.1046 52 37 52H35C32.7909 52 31 50.2091 31 48V32Z"
        fill="white" />
    <path d="M55 26L56.2 28.8L59.2 29.1L57 31.1L57.6 34L55 32.6L52.4 34L53 31.1L50.8 29.1L53.8 28.8L55 26Z"
        fill="#FFD66B" />
    <path
        d="M90.0589 57.4037L82 23.2752L90.4276 23L94.5887 43.5963L99.0659 23.2752L105.387 23L109.548 43.8257L114.552 23.2752L121.662 23L113.182 57.4037H105.545L101.383 36.3945L97.117 57.4037H90.0589Z"
        fill="url(#paint0_linear_0_1)" />
    <path
        d="M131.692 58C129.761 58 128.18 57.419 126.951 56.2569C125.722 55.0642 125.108 53.474 125.108 51.4862V32.1284L132.482 31.578V48.8716C132.482 50.0948 132.71 50.9817 133.167 51.5321C133.623 52.052 134.326 52.3119 135.274 52.3119C136.011 52.3119 136.801 52.159 137.644 51.8532C138.487 51.5168 139.242 50.9969 139.909 50.2936V32.1284L147.336 31.578V57.1284L139.909 57.6789V54.3761C138.68 55.5994 137.328 56.5168 135.853 57.1284C134.413 57.7095 133.026 58 131.692 58Z"
        fill="url(#paint1_linear_0_1)" />
    <path
        d="M153.712 32.1284L161.086 31.578V34.8807C162.596 33.7187 164.071 32.8318 165.511 32.2202C166.986 31.578 168.338 31.2569 169.567 31.2569C171.428 31.2569 172.938 31.8532 174.097 33.0459C175.29 34.208 175.887 35.7829 175.887 37.7706V57.1284L168.513 57.6789V40.2018C168.513 37.9083 167.618 36.7615 165.827 36.7615C165.23 36.7615 164.563 36.9144 163.825 37.2202C163.123 37.526 162.21 37.9694 161.086 38.5505V57.1284L153.712 57.6789V32.1284Z"
        fill="url(#paint2_linear_0_1)" />
    <path
        d="M191.534 58C188.023 58 185.337 56.792 183.476 54.3761C181.614 51.9297 180.684 48.6881 180.684 44.6514C180.684 40.5535 181.632 37.2966 183.528 34.8807C185.424 32.4648 188.181 31.2569 191.798 31.2569C195.239 31.2569 197.873 32.4648 199.699 34.8807C201.525 37.2966 202.438 40.5535 202.438 44.6514C202.438 44.896 202.385 45.0795 202.28 45.2018C202.174 45.2936 202.122 45.3547 202.122 45.3853H188.058C188.058 47.3731 188.356 49.1927 188.953 50.844C189.55 52.4648 190.463 53.2752 191.692 53.2752C193.062 53.2752 194.08 52.5872 194.747 51.211C195.415 49.8349 195.766 49.1162 195.801 49.055L201.384 50.8899C200.647 53.0917 199.47 54.8349 197.855 56.1193C196.24 57.3731 194.133 58 191.534 58ZM195.169 41.6697C195.169 39.8349 194.888 38.3823 194.326 37.3119C193.764 36.2416 192.886 35.7064 191.692 35.7064C191.095 35.7064 190.516 35.9664 189.954 36.4862C189.392 37.0061 188.936 37.7248 188.585 38.6422C188.234 39.5596 188.058 40.5688 188.058 41.6697H195.169Z"
        fill="url(#paint3_linear_0_1)" />
    <path
        d="M206.899 32.1284L214.273 31.578V35.7523C215.327 34.4373 216.626 33.3823 218.171 32.5872C219.751 31.7615 221.753 31.3486 224.176 31.3486V37.633C222.912 37.633 221.244 37.8318 219.172 38.2294C217.135 38.5963 215.502 39.2538 214.273 40.2018V57.1284L206.899 57.6789V32.1284Z"
        fill="url(#paint4_linear_0_1)" />
    <path
        d="M237.833 58C234.287 58 231.548 56.7768 229.617 54.3303C227.72 51.8838 226.772 48.6269 226.772 44.5596C226.772 40.5229 227.72 37.2966 229.617 34.8807C231.513 32.4648 234.252 31.2569 237.833 31.2569C241.38 31.2569 244.119 32.4648 246.05 34.8807C248.017 37.2966 249 40.5229 249 44.5596C249 48.5963 248.017 51.8532 246.05 54.3303C244.119 56.7768 241.38 58 237.833 58ZM237.833 53.2294C239.414 53.2294 240.432 52.3884 240.888 50.7064C241.345 49.0245 241.573 46.9602 241.573 44.5138C241.573 42.0673 241.345 40.0031 240.888 38.3211C240.432 36.6391 239.414 35.7982 237.833 35.7982C236.253 35.7982 235.253 36.5933 234.831 38.1835C234.41 39.7737 234.199 41.7156 234.199 44.0092C234.199 46.8226 234.41 49.0703 234.831 50.7523C235.253 52.4037 236.253 53.2294 237.833 53.2294Z"
        fill="url(#paint5_linear_0_1)" />
    <defs>
        <linearGradient id="paint0_linear_0_1" x1="82" y1="40.5" x2="249" y2="40.5" gradientUnits="userSpaceOnUse">
            <stop stop-color="#4E374B" />
            <stop offset="1" stop-color="#B480AD" />
        </linearGradient>
        <linearGradient id="paint1_linear_0_1" x1="82" y1="40.5" x2="249" y2="40.5" gradientUnits="userSpaceOnUse">
            <stop stop-color="#4E374B" />
            <stop offset="1" stop-color="#B480AD" />
        </linearGradient>
        <linearGradient id="paint2_linear_0_1" x1="82" y1="40.5" x2="249" y2="40.5" gradientUnits="userSpaceOnUse">
            <stop stop-color="#4E374B" />
            <stop offset="1" stop-color="#B480AD" />
        </linearGradient>
        <linearGradient id="paint3_linear_0_1" x1="82" y1="40.5" x2="249" y2="40.5" gradientUnits="userSpaceOnUse">
            <stop stop-color="#4E374B" />
            <stop offset="1" stop-color="#B480AD" />
        </linearGradient>
        <linearGradient id="paint4_linear_0_1" x1="82" y1="40.5" x2="249" y2="40.5" gradientUnits="userSpaceOnUse">
            <stop stop-color="#4E374B" />
            <stop offset="1" stop-color="#B480AD" />
        </linearGradient>
        <linearGradient id="paint5_linear_0_1" x1="82" y1="40.5" x2="249" y2="40.5" gradientUnits="userSpaceOnUse">
            <stop stop-color="#4E374B" />
            <stop offset="1" stop-color="#B480AD" />
        </linearGradient>
    </defs>
</svg>