<svg width="277" height="80" viewBox="0 0 277 80" fill="none" xmlns="http://www.w3.org/2000/svg">
    <path
        d="M263.15 0C270.799 0.000247686 277 7.1636 277 16V64C277 72.8364 270.799 79.9998 263.15 80H13.8496C6.20064 79.9998 0 72.8364 0 64V16C0 7.16359 6.20064 0.000244129 13.8496 0H263.15ZM139.909 32.1289V50.2939C139.242 50.9973 138.486 51.5171 137.644 51.8535C136.801 52.1592 136.011 52.3115 135.273 52.3115C134.326 52.3115 133.623 52.0519 133.167 51.5322C132.71 50.9818 132.482 50.0943 132.482 48.8711V31.5781L125.107 32.1289V51.4863C125.107 53.474 125.722 55.0642 126.951 56.2568C128.18 57.4189 129.761 58 131.692 58C133.027 57.9999 134.414 57.7099 135.854 57.1289C137.328 56.5173 138.68 55.5992 139.909 54.376V57.6787L147.336 57.1289V31.5781L139.909 32.1289ZM191.798 31.2568C188.181 31.2568 185.425 32.465 183.528 34.8809C181.632 37.2968 180.684 40.5535 180.684 44.6514C180.684 48.688 181.615 51.9295 183.476 54.376C185.337 56.7918 188.023 58 191.534 58C194.133 58 196.24 57.373 197.855 56.1191C199.471 54.8348 200.646 53.0913 201.384 50.8896L195.801 49.0547C195.766 49.1158 195.414 49.8348 194.747 51.2109C194.08 52.587 193.062 53.2754 191.692 53.2754C190.463 53.2754 189.55 52.4645 188.953 50.8438C188.356 49.1926 188.058 47.3732 188.058 45.3857H202.121C202.121 45.3552 202.174 45.2937 202.279 45.2021C202.385 45.0798 202.438 44.896 202.438 44.6514C202.437 40.5535 201.524 37.2968 199.698 34.8809C197.872 32.465 195.239 31.2569 191.798 31.2568ZM237.833 31.2568C234.252 31.2569 231.512 32.4651 229.616 34.8809C227.72 37.2967 226.772 40.523 226.772 44.5596C226.772 48.6267 227.72 51.8836 229.616 54.3301C231.547 56.7765 234.287 57.9999 237.833 58C241.38 58 244.119 56.7766 246.051 54.3301C248.017 51.8531 249 48.5961 249 44.5596C249 40.5231 248.017 37.2967 246.051 34.8809C244.119 32.465 241.38 31.2568 237.833 31.2568ZM169.566 31.2568C168.337 31.2569 166.985 31.5776 165.511 32.2197C164.071 32.8313 162.596 33.7188 161.086 34.8809V31.5781L153.712 32.1289V57.6787L161.086 57.1289V38.5508C162.21 37.9697 163.123 37.5255 163.825 37.2197C164.563 36.9139 165.23 36.7617 165.827 36.7617C167.618 36.7618 168.514 37.9087 168.514 40.2021V57.6787L175.888 57.1289V37.7705C175.888 35.7829 175.29 34.2079 174.097 33.0459C172.938 31.8532 171.427 31.2568 169.566 31.2568ZM224.176 31.3486C221.753 31.3486 219.751 31.7612 218.171 32.5869C216.626 33.382 215.327 34.4371 214.273 35.752V31.5781L206.899 32.1289V57.6787L214.273 57.1289V40.2021C215.502 39.2541 217.135 38.5965 219.172 38.2295C221.244 37.8319 222.912 37.6328 224.176 37.6328V31.3486ZM114.552 23.2754L109.548 43.8262L105.387 23L99.0654 23.2754L94.5889 43.5967L90.4277 23L82 23.2754L90.0586 57.4033H97.1172L101.384 36.3945L105.545 57.4033H113.182L121.662 23L114.552 23.2754ZM237.833 35.7979C239.413 35.7979 240.432 36.6393 240.889 38.3213C241.345 40.0032 241.573 42.0673 241.573 44.5137C241.573 46.96 241.345 49.0242 240.889 50.7061C240.432 52.388 239.413 53.2295 237.833 53.2295C236.253 53.2293 235.252 52.4032 234.831 50.752C234.41 49.07 234.199 46.8221 234.199 44.0088C234.199 41.7154 234.41 39.7737 234.831 38.1836C235.252 36.5935 236.253 35.798 237.833 35.7979ZM191.692 35.7061C192.886 35.7061 193.764 36.2414 194.326 37.3115C194.888 38.3819 195.169 39.8351 195.169 41.6699H188.058C188.058 40.5691 188.234 39.5599 188.585 38.6426C188.936 37.7252 189.392 37.0062 189.954 36.4863C190.516 35.9665 191.095 35.7061 191.692 35.7061Z"
        fill="white" />
    <path
        d="M43 64C56.2548 64 67 53.2548 67 40C67 26.7452 56.2548 16 43 16C29.7452 16 19 26.7452 19 40C19 53.2548 29.7452 64 43 64Z"
        fill="#3A7AFE" />
    <path
        d="M31 32C31 30.8954 31.8954 30 33 30H36C37.1046 30 38 30.8954 38 32V42L41 36C41.5523 35 42.4477 35 43 36L46 42V32C46 30.8954 46.8954 30 48 30H51C52.1046 30 53 30.8954 53 32V48C53 50.2091 51.2091 52 49 52H47C45.8954 52 45 51.1046 45 50V47L43 50.5C42.5523 51.25 41.4477 51.25 41 50.5L39 47V50C39 51.1046 38.1046 52 37 52H35C32.7909 52 31 50.2091 31 48V32Z"
        fill="white" />
    <path d="M55 26L56.2 28.8L59.2 29.1L57 31.1L57.6 34L55 32.6L52.4 34L53 31.1L50.8 29.1L53.8 28.8L55 26Z"
        fill="#FFD66B" />
</svg>