<svg width="148" height="32" viewBox="0 0 148 32" fill="none" xmlns="http://www.w3.org/2000/svg">
<rect x="4" y="4" width="24" height="24" rx="12" fill="#B63CDF"/>
<path d="M23.8098 4.58541C23.8697 4.40115 24.1303 4.40115 24.1902 4.58541L24.8532 6.62574C24.8799 6.70814 24.9567 6.76393 25.0434 6.76393H27.1887C27.3824 6.76393 27.463 7.01186 27.3062 7.12574L25.5706 8.38673C25.5005 8.43765 25.4712 8.52793 25.498 8.61033L26.1609 10.6507C26.2208 10.8349 26.0099 10.9881 25.8532 10.8743L24.1176 9.61327C24.0475 9.56235 23.9525 9.56235 23.8824 9.61327L22.1468 10.8743C21.9901 10.9881 21.7792 10.8349 21.8391 10.6507L22.502 8.61033C22.5288 8.52793 22.4995 8.43765 22.4294 8.38673L20.6938 7.12573C20.537 7.01185 20.6176 6.76393 20.8113 6.76393H22.9566C23.0433 6.76393 23.1201 6.70814 23.1468 6.62574L23.8098 4.58541Z" fill="#FFD66B"/>
<path d="M18.7276 10.48H21.1116C21.3142 10.48 21.4582 10.528 21.5436 10.624C21.6396 10.7093 21.6876 10.8533 21.6876 11.056V17.264C21.6876 17.6053 21.6716 17.9253 21.6396 18.224C21.6182 18.512 21.5382 18.8533 21.3996 19.248L20.5996 21.424C20.5462 21.584 20.4662 21.7227 20.3596 21.84C20.2636 21.9467 20.1302 22 19.9596 22H17.8316C17.6609 22 17.5062 21.9627 17.3676 21.888C17.2289 21.8133 17.1382 21.6907 17.0956 21.52L16.3596 18.912C16.3276 18.8053 16.2849 18.736 16.2316 18.704C16.1889 18.6613 16.1356 18.64 16.0716 18.64H15.9276C15.8636 18.64 15.8049 18.6613 15.7516 18.704C15.7089 18.736 15.6716 18.8053 15.6396 18.912L14.8876 21.52C14.8449 21.68 14.7649 21.8027 14.6476 21.888C14.5302 21.9627 14.3862 22 14.2156 22H12.1036C11.9329 22 11.7836 21.9467 11.6556 21.84C11.5382 21.7333 11.4529 21.5947 11.3996 21.424L10.5996 19.216C10.4609 18.8213 10.3756 18.48 10.3436 18.192C10.3222 17.8933 10.3116 17.5733 10.3116 17.232V11.056C10.3116 10.8533 10.3542 10.7093 10.4396 10.624C10.5356 10.528 10.6849 10.48 10.8876 10.48H13.3516C13.5542 10.48 13.6982 10.528 13.7836 10.624C13.8796 10.7093 13.9276 10.8533 13.9276 11.056V16.944L14.8556 14.928C14.9409 14.7467 15.0529 14.6187 15.1916 14.544C15.3302 14.4693 15.5009 14.432 15.7036 14.432H16.3756C16.5782 14.432 16.7489 14.4693 16.8876 14.544C17.0262 14.6187 17.1382 14.7467 17.2236 14.928L18.1516 16.944V11.056C18.1516 10.8533 18.1942 10.7093 18.2796 10.624C18.3756 10.528 18.5249 10.48 18.7276 10.48Z" fill="white"/>
<path d="M50.5445 7.22H54.1205C54.4245 7.22 54.6405 7.292 54.7685 7.436C54.9125 7.564 54.9845 7.78 54.9845 8.084V17.396C54.9845 17.908 54.9605 18.388 54.9125 18.836C54.8805 19.268 54.7605 19.78 54.5525 20.372L53.3525 23.636C53.2725 23.876 53.1525 24.084 52.9925 24.26C52.8485 24.42 52.6485 24.5 52.3925 24.5H49.2005C48.9445 24.5 48.7125 24.444 48.5045 24.332C48.2965 24.22 48.1605 24.036 48.0965 23.78L46.9925 19.868C46.9445 19.708 46.8805 19.604 46.8005 19.556C46.7365 19.492 46.6565 19.46 46.5605 19.46H46.3445C46.2485 19.46 46.1605 19.492 46.0805 19.556C46.0165 19.604 45.9605 19.708 45.9125 19.868L44.7845 23.78C44.7205 24.02 44.6005 24.204 44.4245 24.332C44.2485 24.444 44.0325 24.5 43.7765 24.5H40.6085C40.3525 24.5 40.1285 24.42 39.9365 24.26C39.7605 24.1 39.6325 23.892 39.5525 23.636L38.3525 20.324C38.1445 19.732 38.0165 19.22 37.9685 18.788C37.9365 18.34 37.9205 17.86 37.9205 17.348V8.084C37.9205 7.78 37.9845 7.564 38.1125 7.436C38.2565 7.292 38.4805 7.22 38.7845 7.22H42.4805C42.7845 7.22 43.0005 7.292 43.1285 7.436C43.2725 7.564 43.3445 7.78 43.3445 8.084V16.916L44.7365 13.892C44.8645 13.62 45.0325 13.428 45.2405 13.316C45.4485 13.204 45.7045 13.148 46.0085 13.148H47.0165C47.3205 13.148 47.5765 13.204 47.7845 13.316C47.9925 13.428 48.1605 13.62 48.2885 13.892L49.6805 16.916V8.084C49.6805 7.78 49.7445 7.564 49.8725 7.436C50.0165 7.292 50.2405 7.22 50.5445 7.22ZM72.7938 19.964C72.7938 20.7 72.6818 21.372 72.4578 21.98C72.2498 22.572 71.8658 23.084 71.3058 23.516C70.7618 23.932 70.0098 24.26 69.0498 24.5C68.0898 24.74 66.8658 24.86 65.3778 24.86C63.8898 24.86 62.6658 24.74 61.7058 24.5C60.7458 24.26 59.9858 23.932 59.4258 23.516C58.8818 23.084 58.4978 22.572 58.2738 21.98C58.0658 21.372 57.9618 20.7 57.9618 19.964V8.084C57.9618 7.78 58.0258 7.564 58.1538 7.436C58.2978 7.292 58.5218 7.22 58.8258 7.22H62.5938C62.8978 7.22 63.1138 7.292 63.2418 7.436C63.3858 7.564 63.4578 7.78 63.4578 8.084V19.028C63.4578 19.348 63.5778 19.62 63.8178 19.844C64.0578 20.052 64.5938 20.156 65.4258 20.156C66.2738 20.156 66.8178 20.052 67.0578 19.844C67.2978 19.62 67.4178 19.348 67.4178 19.028V8.084C67.4178 7.78 67.4818 7.564 67.6098 7.436C67.7538 7.292 67.9778 7.22 68.2818 7.22H71.9298C72.2338 7.22 72.4498 7.292 72.5778 7.436C72.7218 7.564 72.7938 7.78 72.7938 8.084V19.964ZM80.452 24.5H76.852C76.548 24.5 76.324 24.436 76.18 24.308C76.052 24.164 75.988 23.94 75.988 23.636V8.084C75.988 7.78 76.052 7.564 76.18 7.436C76.324 7.292 76.548 7.22 76.852 7.22H79.348C79.652 7.22 79.908 7.268 80.116 7.364C80.34 7.46 80.556 7.628 80.764 7.868L85.42 13.196V8.084C85.42 7.78 85.484 7.564 85.612 7.436C85.756 7.292 85.98 7.22 86.284 7.22H89.884C90.188 7.22 90.404 7.292 90.532 7.436C90.676 7.564 90.748 7.78 90.748 8.084V23.636C90.748 23.94 90.676 24.164 90.532 24.308C90.404 24.436 90.188 24.5 89.884 24.5H86.284C85.98 24.5 85.756 24.436 85.612 24.308C85.484 24.164 85.42 23.94 85.42 23.636V20.684L81.316 15.716V23.636C81.316 23.94 81.244 24.164 81.1 24.308C80.972 24.436 80.756 24.5 80.452 24.5ZM106.058 24.5H94.9223C94.6183 24.5 94.3943 24.436 94.2503 24.308C94.1223 24.164 94.0583 23.94 94.0583 23.636V8.084C94.0583 7.78 94.1223 7.564 94.2503 7.436C94.3943 7.292 94.6183 7.22 94.9223 7.22H106.058C106.362 7.22 106.578 7.292 106.706 7.436C106.85 7.564 106.922 7.78 106.922 8.084V10.892C106.922 11.196 106.85 11.42 106.706 11.564C106.578 11.692 106.362 11.756 106.058 11.756H99.4343V13.604H104.114C104.418 13.604 104.634 13.676 104.762 13.82C104.906 13.948 104.978 14.164 104.978 14.468V17.036C104.978 17.34 104.906 17.564 104.762 17.708C104.634 17.836 104.418 17.9 104.114 17.9H99.4343V19.964H106.058C106.362 19.964 106.578 20.036 106.706 20.18C106.85 20.308 106.922 20.524 106.922 20.828V23.636C106.922 23.94 106.85 24.164 106.706 24.308C106.578 24.436 106.362 24.5 106.058 24.5ZM115.185 11.54V14.612H116.985C117.401 14.612 117.681 14.508 117.825 14.3C117.969 14.076 118.041 13.804 118.041 13.484V12.668C118.041 12.348 117.969 12.084 117.825 11.876C117.681 11.652 117.401 11.54 116.985 11.54H115.185ZM114.321 24.5H110.625C110.321 24.5 110.097 24.436 109.953 24.308C109.825 24.164 109.761 23.94 109.761 23.636V8.084C109.761 7.78 109.825 7.564 109.953 7.436C110.097 7.292 110.321 7.22 110.625 7.22H118.617C120.409 7.22 121.641 7.596 122.313 8.348C123.001 9.084 123.345 10.044 123.345 11.228V12.332C123.345 13.004 123.241 13.58 123.033 14.06C122.841 14.524 122.497 14.86 122.001 15.068C122.865 15.164 123.561 15.516 124.089 16.124C124.633 16.732 124.905 17.54 124.905 18.548V23.636C124.905 23.94 124.833 24.164 124.689 24.308C124.561 24.436 124.345 24.5 124.041 24.5H120.321C120.017 24.5 119.793 24.436 119.649 24.308C119.521 24.164 119.457 23.94 119.457 23.636V19.964C119.457 19.612 119.385 19.356 119.241 19.196C119.113 19.02 118.881 18.932 118.545 18.932H115.185V23.636C115.185 23.94 115.113 24.164 114.969 24.308C114.841 24.436 114.625 24.5 114.321 24.5ZM142.12 19.964C142.12 20.7 142.008 21.372 141.784 21.98C141.576 22.572 141.192 23.084 140.632 23.516C140.088 23.932 139.328 24.26 138.352 24.5C137.392 24.74 136.168 24.86 134.68 24.86C133.192 24.86 131.96 24.74 130.984 24.5C130.008 24.26 129.24 23.932 128.68 23.516C128.136 23.084 127.752 22.572 127.528 21.98C127.32 21.372 127.216 20.7 127.216 19.964V11.78C127.216 11.044 127.32 10.38 127.528 9.788C127.752 9.18 128.136 8.66 128.68 8.228C129.24 7.796 130.008 7.46 130.984 7.22C131.96 6.98 133.192 6.86 134.68 6.86C136.168 6.86 137.392 6.98 138.352 7.22C139.328 7.46 140.088 7.796 140.632 8.228C141.192 8.66 141.576 9.18 141.784 9.788C142.008 10.38 142.12 11.044 142.12 11.78V19.964ZM132.664 19.1C132.664 19.42 132.784 19.692 133.024 19.916C133.264 20.124 133.816 20.228 134.68 20.228C135.544 20.228 136.096 20.124 136.336 19.916C136.576 19.692 136.696 19.42 136.696 19.1V12.644C136.696 12.34 136.576 12.084 136.336 11.876C136.096 11.652 135.544 11.54 134.68 11.54C133.816 11.54 133.264 11.652 133.024 11.876C132.784 12.084 132.664 12.34 132.664 12.644V19.1Z" fill="white"/>
</svg>
